<svg xmlns="http://www.w3.org/2000/svg" x="0px" y="0px"
width="48" height="48"
viewBox="0 0 172 172"
style=" fill:#000000;"><defs><linearGradient x1="50.98725" y1="29.8635" x2="109.61058" y2="141.50583" gradientUnits="userSpaceOnUse" id="color-1_aXgIQg8m0A4o_gr1"><stop offset="0" stop-color="#2aa4f4"></stop><stop offset="1" stop-color="#007ad9"></stop></linearGradient></defs><g fill="none" fill-rule="nonzero" stroke="none" stroke-width="1" stroke-linecap="butt" stroke-linejoin="miter" stroke-miterlimit="10" stroke-dasharray="" stroke-dashoffset="0" font-family="none" font-weight="none" font-size="none" text-anchor="none" style="mix-blend-mode: normal"><path d="M0,172v-172h172v172z" fill="#1c2431"></path><g fill="url(#color-1_aXgIQg8m0A4o_gr1)"><path d="M172,93.16667c0,-23.47083 -18.77667,-42.53417 -42.14,-42.96417c-10.32,-15.1575 -27.69917,-25.11917 -47.44333,-25.11917c-27.01833,0 -49.62917,18.66917 -55.72083,43.78833c-15.30083,3.36833 -26.69583,16.985 -26.69583,33.25333c0,18.8125 15.22917,34.04167 34.04167,34.04167h1.87767c6.0415,12.69933 18.95583,21.5 33.95567,21.5c11.782,0 22.29192,-5.42517 29.18983,-13.90333c3.92017,4.14233 9.45283,6.73667 15.60183,6.73667c9.53883,0 17.61208,-6.21708 20.425,-14.8135c20.86217,-2.96342 36.90833,-20.83708 36.90833,-42.51983z"></path></g></g></svg>