<svg xmlns="http://www.w3.org/2000/svg" x="0px" y="0px"
width="24" height="24"
viewBox="0 0 172 172"
style=" fill:#ffffff;"><g fill="none" fill-rule="nonzero" stroke="none" stroke-width="1" stroke-linecap="butt" stroke-linejoin="miter" stroke-miterlimit="10" stroke-dasharray="" stroke-dashoffset="0" font-family="none" font-weight="none" font-size="none" text-anchor="none" style="mix-blend-mode: normal"><path d="M0,172v-172h172v172z" fill="#1c2431"></path><g fill="#ffffff"><path d="M103.91667,14.33333c-13.78731,0 -25.08333,11.29603 -25.08333,25.08333h14.33333c0,-6.27937 4.47064,-10.75 10.75,-10.75c6.27936,0 10.75,4.47063 10.75,10.75c0,6.27937 -4.47064,10.75 -10.75,10.75h-89.58333v14.33333h89.58333c13.78731,0 25.08333,-11.29603 25.08333,-25.08333c0,-13.7873 -11.29603,-25.08333 -25.08333,-25.08333zM14.33333,78.83333v14.33333h114.66667c8.52974,0 14.33333,5.8036 14.33333,14.33333c0,8.52974 -5.8036,14.33333 -14.33333,14.33333c-8.52974,0 -14.33333,-5.8036 -14.33333,-14.33333h-14.33333c0,15.83693 12.82974,28.66667 28.66667,28.66667c15.83693,0 28.66667,-12.82974 28.66667,-28.66667c0,-15.83693 -12.82974,-28.66667 -28.66667,-28.66667zM14.33333,107.5v14.33333h46.58333c6.27937,0 10.75,4.47064 10.75,10.75c0,6.27936 -4.47063,10.75 -10.75,10.75c-6.27937,0 -10.75,-4.47064 -10.75,-10.75h-14.33333c0,13.78731 11.29603,25.08333 25.08333,25.08333c13.7873,0 25.08333,-11.29603 25.08333,-25.08333c0,-13.78731 -11.29603,-25.08333 -25.08333,-25.08333z"></path></g></g></svg>